<svg width="410" height="410" viewBox="0 0 410 410" fill="none" xmlns="http://www.w3.org/2000/svg">
<g clip-path="url(#clip0_15_63)">
<rect width="410" height="410" fill="#232946"/>
<path d="M69 54.5V70.2753L83.9412 75.3368C115.472 86.0184 143.775 108.013 171.175 137.133C195.382 162.858 217.64 192.734 240.407 223.292C243.507 227.452 246.616 231.626 249.741 235.803C275.292 269.959 302.028 304.567 331.708 330.514C361.686 356.722 396.56 375.783 438.398 375.783C586.073 375.783 711 270.575 711 134.783C711 -1.00928 586.073 -106.217 438.398 -106.217C368.783 -106.217 279.427 -101.808 206.841 -81.3932C170.582 -71.1952 136.681 -56.5181 111.489 -34.8941C85.6196 -12.689 69 16.9122 69 54.5Z" fill="white"/>
<path d="M69 54.5V70.2753L83.9412 75.3368C115.472 86.0184 143.775 108.013 171.175 137.133C195.382 162.858 217.64 192.734 240.407 223.292C243.507 227.452 246.616 231.626 249.741 235.803C275.292 269.959 302.028 304.567 331.708 330.514C361.686 356.722 396.56 375.783 438.398 375.783C586.073 375.783 711 270.575 711 134.783C711 -1.00928 586.073 -106.217 438.398 -106.217C368.783 -106.217 279.427 -101.808 206.841 -81.3932C170.582 -71.1952 136.681 -56.5181 111.489 -34.8941C85.6196 -12.689 69 16.9122 69 54.5Z" stroke="black" stroke-width="44"/>
<path d="M69 54.5V70.2753L83.9412 75.3368C115.472 86.0184 143.775 108.013 171.175 137.133C195.382 162.858 217.64 192.734 240.407 223.292C243.507 227.452 246.616 231.626 249.741 235.803C275.292 269.959 302.028 304.567 331.708 330.514C361.686 356.722 396.56 375.783 438.398 375.783C586.073 375.783 711 270.575 711 134.783C711 -1.00928 586.073 -106.217 438.398 -106.217C368.783 -106.217 279.427 -101.808 206.841 -81.3932C170.582 -71.1952 136.681 -56.5181 111.489 -34.8941C85.6196 -12.689 69 16.9122 69 54.5Z" stroke="black" stroke-opacity="0.2" stroke-width="44"/>
<path d="M729 83.5C729 216.324 616.802 324 478.398 324C339.995 324 276.492 49.4617 131 -4.66474C131 -137.489 339.995 -157 478.398 -157C616.802 -157 729 -49.3245 729 83.5Z" fill="black"/>
<line x1="156.86" y1="289.933" x2="272.86" y2="240.933" stroke="black" stroke-width="11"/>
<path d="M184 83L118 434" stroke="white" stroke-width="28" stroke-linecap="round"/>
<line x1="155.413" y1="135.883" x2="100.413" y2="410.883" stroke="black" stroke-width="9"/>
</g>
<defs>
<clipPath id="clip0_15_63">
<rect width="410" height="410" fill="white"/>
</clipPath>
</defs>
</svg>
