<svg width="666" height="666" viewBox="0 0 666 666" fill="none" xmlns="http://www.w3.org/2000/svg">
<g clip-path="url(#clip0_42_10)">
<g filter="url(#filter0_d_42_10)">
<circle cx="291.5" cy="375.5" r="276.5" fill="#232946"/>
</g>
<circle cx="86" cy="240" r="32" fill="white"/>
<circle cx="110" cy="411" r="36" fill="white"/>
<circle cx="354.5" cy="576.5" r="41.5" fill="white"/>
<path d="M648.722 232.142C652.786 284.702 622.585 348.513 598.252 397.466C573.92 446.419 543.42 491.997 501.288 509.076C459.091 526.222 411.948 492.03 357.503 483.66C303.128 475.358 241.446 492.743 210.946 462.653C180.512 432.495 174.57 377.567 164.436 323.053C154.302 268.539 139.84 214.439 153.656 168.079C167.541 121.786 213.552 86.923 261.38 70.1047C309.277 53.3541 354.891 35.5725 409.64 42.2482C464.392 49.0593 507.274 97.7546 548.358 128.503C589.508 159.184 644.656 179.446 648.722 232.142Z" fill="white"/>
<g filter="url(#filter1_d_42_10)">
<path d="M659.366 223.149C663.43 275.709 633.228 339.519 608.896 388.473C584.563 437.426 554.063 483.003 511.932 500.082C469.734 517.229 422.592 483.037 368.147 474.667C313.771 466.365 252.09 483.75 221.59 453.66C191.156 423.502 185.214 368.574 175.08 314.06C164.945 259.546 150.483 205.446 164.299 159.086C178.184 112.793 224.195 77.9298 272.024 61.1115C319.921 44.3609 365.535 26.5793 420.284 33.255C475.036 40.0662 517.918 88.7615 559.001 119.51C600.151 150.191 655.299 170.453 659.366 223.149Z" fill="#FFC9A5"/>
</g>
<g filter="url(#filter2_d_42_10)">
<line x1="49.0663" y1="550.38" x2="621.38" y2="261.934" stroke="#FF8496" stroke-width="59" stroke-linecap="round"/>
</g>
<g filter="url(#filter3_d_42_10)">
<line x1="202.08" y1="559.467" x2="790.467" y2="262.92" stroke="#FFC9A5" stroke-width="41" stroke-linecap="round"/>
</g>
<g filter="url(#filter4_d_42_10)">
<path d="M-49 444.059L594 118" stroke="#FFC9A5" stroke-width="40" stroke-linecap="round"/>
</g>
<g filter="url(#filter5_d_42_10)">
<path d="M-39 459.059L604 133" stroke="#FF8496" stroke-width="5" stroke-linecap="round"/>
</g>
<g filter="url(#filter6_d_42_10)">
<line x1="-8.46597" y1="368.268" x2="455.268" y2="142.466" stroke="#FF8496" stroke-width="37" stroke-linecap="round"/>
</g>
</g>
<defs>
<filter id="filter0_d_42_10" x="11" y="99" width="561" height="561" filterUnits="userSpaceOnUse" color-interpolation-filters="sRGB">
<feFlood flood-opacity="0" result="BackgroundImageFix"/>
<feColorMatrix in="SourceAlpha" type="matrix" values="0 0 0 0 0 0 0 0 0 0 0 0 0 0 0 0 0 0 127 0" result="hardAlpha"/>
<feOffset dy="4"/>
<feGaussianBlur stdDeviation="2"/>
<feComposite in2="hardAlpha" operator="out"/>
<feColorMatrix type="matrix" values="0 0 0 0 0 0 0 0 0 0 0 0 0 0 0 0 0 0 0.25 0"/>
<feBlend mode="normal" in2="BackgroundImageFix" result="effect1_dropShadow_42_10"/>
<feBlend mode="normal" in="SourceGraphic" in2="effect1_dropShadow_42_10" result="shape"/>
</filter>
<filter id="filter1_d_42_10" x="154.618" y="31.8154" width="509.118" height="481.014" filterUnits="userSpaceOnUse" color-interpolation-filters="sRGB">
<feFlood flood-opacity="0" result="BackgroundImageFix"/>
<feColorMatrix in="SourceAlpha" type="matrix" values="0 0 0 0 0 0 0 0 0 0 0 0 0 0 0 0 0 0 127 0" result="hardAlpha"/>
<feOffset dy="4"/>
<feGaussianBlur stdDeviation="2"/>
<feComposite in2="hardAlpha" operator="out"/>
<feColorMatrix type="matrix" values="0 0 0 0 0 0 0 0 0 0 0 0 0 0 0 0 0 0 0.5 0"/>
<feBlend mode="normal" in2="BackgroundImageFix" result="effect1_dropShadow_42_10"/>
<feBlend mode="normal" in="SourceGraphic" in2="effect1_dropShadow_42_10" result="shape"/>
</filter>
<filter id="filter2_d_42_10" x="15.5598" y="232.427" width="639.326" height="355.459" filterUnits="userSpaceOnUse" color-interpolation-filters="sRGB">
<feFlood flood-opacity="0" result="BackgroundImageFix"/>
<feColorMatrix in="SourceAlpha" type="matrix" values="0 0 0 0 0 0 0 0 0 0 0 0 0 0 0 0 0 0 127 0" result="hardAlpha"/>
<feOffset dy="4"/>
<feGaussianBlur stdDeviation="2"/>
<feComposite in2="hardAlpha" operator="out"/>
<feColorMatrix type="matrix" values="0 0 0 0 0.313726 0 0 0 0 0.313726 0 0 0 0 0.313726 0 0 0 0.45 0"/>
<feBlend mode="normal" in2="BackgroundImageFix" result="effect1_dropShadow_42_10"/>
<feBlend mode="normal" in="SourceGraphic" in2="effect1_dropShadow_42_10" result="shape"/>
</filter>
<filter id="filter3_d_42_10" x="177.575" y="242.416" width="637.396" height="345.556" filterUnits="userSpaceOnUse" color-interpolation-filters="sRGB">
<feFlood flood-opacity="0" result="BackgroundImageFix"/>
<feColorMatrix in="SourceAlpha" type="matrix" values="0 0 0 0 0 0 0 0 0 0 0 0 0 0 0 0 0 0 127 0" result="hardAlpha"/>
<feOffset dy="4"/>
<feGaussianBlur stdDeviation="2"/>
<feComposite in2="hardAlpha" operator="out"/>
<feColorMatrix type="matrix" values="0 0 0 0 0 0 0 0 0 0 0 0 0 0 0 0 0 0 0.25 0"/>
<feBlend mode="normal" in2="BackgroundImageFix" result="effect1_dropShadow_42_10"/>
<feBlend mode="normal" in="SourceGraphic" in2="effect1_dropShadow_42_10" result="shape"/>
</filter>
<filter id="filter4_d_42_10" x="-73.0044" y="97.9956" width="691.009" height="374.067" filterUnits="userSpaceOnUse" color-interpolation-filters="sRGB">
<feFlood flood-opacity="0" result="BackgroundImageFix"/>
<feColorMatrix in="SourceAlpha" type="matrix" values="0 0 0 0 0 0 0 0 0 0 0 0 0 0 0 0 0 0 127 0" result="hardAlpha"/>
<feOffset dy="4"/>
<feGaussianBlur stdDeviation="2"/>
<feComposite in2="hardAlpha" operator="out"/>
<feColorMatrix type="matrix" values="0 0 0 0 0 0 0 0 0 0 0 0 0 0 0 0 0 0 0.25 0"/>
<feBlend mode="normal" in2="BackgroundImageFix" result="effect1_dropShadow_42_10"/>
<feBlend mode="normal" in="SourceGraphic" in2="effect1_dropShadow_42_10" result="shape"/>
</filter>
<filter id="filter5_d_42_10" x="-45.5005" y="130.5" width="656.001" height="339.06" filterUnits="userSpaceOnUse" color-interpolation-filters="sRGB">
<feFlood flood-opacity="0" result="BackgroundImageFix"/>
<feColorMatrix in="SourceAlpha" type="matrix" values="0 0 0 0 0 0 0 0 0 0 0 0 0 0 0 0 0 0 127 0" result="hardAlpha"/>
<feOffset dy="4"/>
<feGaussianBlur stdDeviation="2"/>
<feComposite in2="hardAlpha" operator="out"/>
<feColorMatrix type="matrix" values="0 0 0 0 0 0 0 0 0 0 0 0 0 0 0 0 0 0 0.25 0"/>
<feBlend mode="normal" in2="BackgroundImageFix" result="effect1_dropShadow_42_10"/>
<feBlend mode="normal" in="SourceGraphic" in2="effect1_dropShadow_42_10" result="shape"/>
</filter>
<filter id="filter6_d_42_10" x="-30.9702" y="123.962" width="508.742" height="270.811" filterUnits="userSpaceOnUse" color-interpolation-filters="sRGB">
<feFlood flood-opacity="0" result="BackgroundImageFix"/>
<feColorMatrix in="SourceAlpha" type="matrix" values="0 0 0 0 0 0 0 0 0 0 0 0 0 0 0 0 0 0 127 0" result="hardAlpha"/>
<feOffset dy="4"/>
<feGaussianBlur stdDeviation="2"/>
<feComposite in2="hardAlpha" operator="out"/>
<feColorMatrix type="matrix" values="0 0 0 0 0 0 0 0 0 0 0 0 0 0 0 0 0 0 0.25 0"/>
<feBlend mode="normal" in2="BackgroundImageFix" result="effect1_dropShadow_42_10"/>
<feBlend mode="normal" in="SourceGraphic" in2="effect1_dropShadow_42_10" result="shape"/>
</filter>
<clipPath id="clip0_42_10">
<rect width="666" height="666" fill="white"/>
</clipPath>
</defs>
</svg>
