<svg id="visual" viewBox="0 0 675 900" width="675" height="900" xmlns="http://www.w3.org/2000/svg" xmlns:xlink="http://www.w3.org/1999/xlink" version="1.1"><rect x="0" y="0" width="675" height="900" fill="#232946"></rect><defs><linearGradient id="grad1_0" x1="0%" y1="0%" x2="100%" y2="100%"><stop offset="30%" stop-color="#232946" stop-opacity="1"></stop><stop offset="70%" stop-color="#232946" stop-opacity="1"></stop></linearGradient></defs><defs><linearGradient id="grad2_0" x1="0%" y1="0%" x2="100%" y2="100%"><stop offset="30%" stop-color="#232946" stop-opacity="1"></stop><stop offset="70%" stop-color="#232946" stop-opacity="1"></stop></linearGradient></defs><g transform="translate(675, 0)"><path d="M0 225C-45 222.4 -90 219.8 -112.5 194.9C-135 169.9 -134.8 122.7 -149.8 86.5C-164.8 50.3 -194.9 25.2 -225 0L0 0Z" fill="#Ffc9a5"></path></g><g transform="translate(0, 900)"><path d="M0 -225C17.2 -181 34.3 -137.1 71.5 -123.8C108.7 -110.6 165.9 -128 194.9 -112.5C223.8 -97 224.4 -48.5 225 0L0 0Z" fill="#Ffc9a5"></path></g></svg>